<svg xmlns="http://www.w3.org/2000/svg" viewBox="0 0 439.2848 269.1475"><defs><style>.cls-1{fill:#231f20;}</style></defs><title>logo</title><g id="Слой_1" data-name="Слой 1"><path class="cls-1" d="M98.32809,361.975c-2.37176-1.301-4.53007-3.093-7.417-3.20742a4.833,4.833,0,0,0-1.42156-.10108c-3.04686.89848-6.35263.96919-9.197,2.4327-5.68915,2.92724-8.80147,8.1901-8.35457,15.03359.34007,5.20757,1.678,10.22271,5.23165,14.36875,1.08031,1.26038,1.85613,2.78157,2.93492,4.04351,1.38375,1.6187,3.54936,1.97388,5.3622,2.87222a20.02243,20.02243,0,0,0,7.55508,2.18234,15.00935,15.00935,0,0,0,8.45575-1.97373,37.59431,37.59431,0,0,0,9.23452-7.46107c2.20691-2.35955,2.87948-5.44278,2.89809-8.54787.04991-8.32754.0289-16.65867-.16884-24.98349-.14576-6.13649-.74849-12.26195-.90242-18.39847-.16812-6.70247-.08824-13.41231-.03243-20.11824.01062-1.2758-.3455-1.60238-1.6069-1.59634-7.91434.03793-15.83019-.09765-23.7433.00172a19.87174,19.87174,0,0,0-12.09535,3.682,2.18562,2.18562,0,0,1-.45473.28514,1.08492,1.08492,0,0,1-.37333.00779,2.24993,2.24993,0,0,1,.5895-2.45822,19.96614,19.96614,0,0,0,3.84386-7.05752c.53767-1.51441,1.80564-1.63842,3.0829-1.63889,5.37868-.002,10.76389-.11533,16.13441.10793,6.67052.27731,13.26449-.8934,19.91932-.764,7.59733.14773,15.19361.05111,22.79018-.17046,2.96271-.08641,5.91049-.31221,8.86346-.51237a8.02154,8.02154,0,0,0,6.34889-3.32342c.269-.37236.614-.923,1.11472-.77383.60279.17955.263.82761.30636,1.26807.23746,2.41332-.25107,4.79543-.36082,7.19471-.081,1.7712-1.54331,2.28117-2.95689,2.73839-3.62678,1.17307-7.3958.95294-11.11917,1.07207-3.38177.1082-6.77179.07416-10.15445-.02474-1.16775-.03414-1.3936.32485-1.34912,1.40092.20386,4.93239-.00454,9.909.59159,14.78956.49306,4.03666.21709,8.03123.37,12.04047a20.97237,20.97237,0,0,0,.83149,4.7622,5.02643,5.02643,0,0,0,3.69344,3.64349c.4808.1319,1.06586.14206.87758.8194-.19164.68944-.777.3881-1.21782.27067a6.2,6.2,0,0,1-3.97236-3.1931c0,2.70412-.08422,5.11529.01963,7.51832.15806,3.65743.27621,7.31028.13209,10.971a3.37631,3.37631,0,0,1-2.66511,3.37489,3.67816,3.67816,0,0,1-4.08183-2.28675c-.37429-1.13527-1.06006-2.32275-.52333-3.624.12889-.31249.11211-.80119.59469-.787.6463.01907.51916.57866.50279.95639a4.8335,4.8335,0,0,0,1.35617,4.09423c1.43395,1.283,3.04021.68531,3.49583-1.18655a14.80805,14.80805,0,0,0,.22524-4.12087c-.397-10.4691-.90892-20.93064-.97009-31.41528-.03292-5.64235-.87185-11.28-.6053-16.94734.03911-.83148-.32952-1.04692-1.04853-1.04249-1.93444.01191-3.86984.04066-5.80313-.00712-.91967-.02273-1.13375.39495-1.09341,1.206a63.14442,63.14442,0,0,1,.19766,7.17533c-.18233,2.723.18985,5.36427.17981,8.04171-.04286,11.42483-.02036,22.84992-.01867,34.2749.0006,4.02435.15934,8.05588-.03338,12.07072-.14709,3.0643.24235,6.15192-.63163,9.20621a13.388,13.388,0,0,1-7.88556,9.12465,94.30577,94.30577,0,0,1-13.2878,4.44553,6.94671,6.94671,0,0,1-2.48964.36626c-2.93695-.26105-5.848.53209-8.79694.16311-6.28367-.78622-11.58611-3.57692-16.53321-7.43574a21.96175,21.96175,0,0,1-8.55679-14.17187,20.22467,20.22467,0,0,1,3.19557-15.14979c2.783-4.10867,6.69954-6.46591,10.93979-8.43035,3.46094-1.6034,7.18553-.92165,10.83673-.49362,3.88147.455,6.834,2.60137,9.6331,5.0736C98.73552,361.92756,98.70755,362.17834,98.32809,361.975Z" transform="translate(-63.8226 -148.89125)"/><path class="cls-1" d="M100.55831,363.754a9.66329,9.66329,0,0,1,1.70768,6.84547c-.32911,2.19833-.349,4.36563-1.53432,6.36723-2.07962,3.51182-4.89331,5.85946-9.07891,6.31992-4.18808.46074-9.11836-2.02-10.83958-5.90941-1.26757-2.86431-1.1027-6.94735,2.79088-8.76058,2.60712-1.21412,5.14046-2.23691,7.98319-.52588,1.47113.88546,3.27858.99156,4.88494,1.66724,2.23086.93835,4.3723-1.24588,4.04921-3.97491a15.75255,15.75255,0,0,0-.345-1.57313C100.00051,363.804,100.18865,363.703,100.55831,363.754Z" transform="translate(-63.8226 -148.89125)"/><path class="cls-1" d="M100.55831,363.754l-.38187.456-1.013-1.55907a.41928.41928,0,0,1,.31225-.25633A1.51239,1.51239,0,0,1,100.55831,363.754Z" transform="translate(-63.8226 -148.89125)"/><path class="cls-1" d="M99.47572,362.39458l-.31228.2563a1.08866,1.08866,0,0,1-.83535-.67584l.41662-.3225C99.19423,361.69709,99.38513,361.99644,99.47572,362.39458Z" transform="translate(-63.8226 -148.89125)"/><path class="cls-1" d="M112.621,239.64929c-3.35419-2.03245-6.40653-4.832-10.4893-5.01085-.67463-.02954-1.40729-.35437-2.01041-.15791-4.30894,1.40366-8.984,1.51414-13.0066,3.80052-8.04573,4.57313-12.44724,12.79512-11.81522,23.48648.48094,8.13562,2.373,15.97061,7.39872,22.44783,1.5278,1.96906,2.625,4.34555,4.15063,6.317,1.95693,2.52883,5.01958,3.08373,7.58334,4.48717a26.3351,26.3351,0,0,0,10.68457,3.4094,19.62493,19.62493,0,0,0,11.95831-3.08349,54.55405,54.55405,0,0,0,13.05967-11.65619c3.12106-3.68624,4.07223-8.50307,4.09855-13.35406.07059-13.00985.04088-26.02529-.23877-39.03089-.20613-9.58684-1.05853-19.15644-1.27622-28.74332-.23776-10.47105-.12479-20.95361-.04586-31.43007.015-1.99314-.48862-2.50334-2.27251-2.4939-11.19264.05925-22.38741-.15256-33.57832.00268-6.13657.08513-12.03909,1.53132-17.10551,5.75224a3.06369,3.06369,0,0,1-.6431.44546,1.3915,1.3915,0,0,1-.528.01217,3.77081,3.77081,0,0,1,.83368-3.8404c2.64073-3.18617,4.15445-7.038,5.43608-11.02573.76039-2.36592,2.55357-2.55964,4.35991-2.56039,7.60665-.00313,15.22254-.18018,22.81765.16862,9.43361.43323,18.75894-1.39573,28.17035-1.19357,10.74432.2308,21.48714.07985,32.23039-.26631,4.18994-.135,8.35875-.48776,12.53491-.80046a11.06923,11.06923,0,0,0,8.97875-5.19208c.38041-.58173.86831-1.44195,1.57646-1.20894.85248.2805.372,1.29295.43326,1.98107.33582,3.77024-.35506,7.49174-.51028,11.24006-.11461,2.76709-2.18258,3.56379-4.1817,4.27809-5.12908,1.83264-10.4593,1.48875-15.725,1.67485-4.78257.169-9.57682.11585-14.36065-.03866-1.65145-.05334-1.97086.5075-1.908,2.18862.28831,7.70571-.00643,15.48052.83663,23.10524.69729,6.30635.307,12.54692.52328,18.81042a35.88341,35.88341,0,0,0,1.17592,7.43982,7.506,7.506,0,0,0,5.22335,5.6921c.68.20607,1.50736.22194,1.2411,1.28012-.271,1.0771-1.09879.60631-1.72226.42286a8.9851,8.9851,0,0,1-5.61781-4.98847c0,4.22456-.11911,7.99144.02776,11.74563.22353,5.71388.39062,11.4206.18681,17.13964-.10055,2.82122-1.47149,4.5738-3.76906,5.27248-2.14082.651-5.02843-1.0789-5.77262-3.57252-.52933-1.7736-1.49917-3.62876-.74011-5.66158.18228-.48819.15855-1.25168.841-1.22943.914.0298.7342.904.71106,1.49414-.09471,2.41395.21467,4.71279,1.91793,6.39628,2.02792,2.00438,4.29953,1.07064,4.94388-1.85371a25.51291,25.51291,0,0,0,.31855-6.4379c-.56141-16.35552-1.28542-32.69926-1.37192-49.07905-.04656-8.81485-1.233-17.62242-.856-26.47627.05531-1.299-.466-1.63557-1.48286-1.62865-2.73573.01861-5.47282.06352-8.20692-.01112-1.30062-.03551-1.60338.617-1.54632,1.88408a108.93722,108.93722,0,0,1,.27954,11.20978c-.25785,4.2541.2685,8.38043.2543,12.56329-.06062,17.84863-.02879,35.69767-.0264,53.54655.00085,6.28711.22534,12.58543-.0472,18.85769-.208,4.78726.34273,9.61094-.89327,14.38256-1.7464,6.742-5.267,11.36475-11.15193,14.25514a124.797,124.797,0,0,1-18.79191,6.9451,8.97093,8.97093,0,0,1-3.52091.57219c-4.15349-.40783-8.27031.83126-12.44083.25483-8.88651-1.22828-16.38534-5.5881-23.38164-11.6166A35.06917,35.06917,0,0,1,64.2708,268.82879c-1.22721-8.35484-.00236-16.29374,4.51925-23.668,3.93578-6.41884,9.47464-10.10147,15.4713-13.17047,4.89453-2.50493,10.16193-1.43987,15.32555-.77117,5.48927.71086,9.66486,4.064,13.62334,7.92632C113.19724,239.57514,113.15769,239.96692,112.621,239.64929Z" transform="translate(-63.8226 -148.89125)"/><path class="cls-1" d="M115.77507,242.42856c1.8283,3.27859,2.979,6.53319,2.415,10.69445-.46544,3.43437-.49359,6.82029-2.16987,9.94731-2.94105,5.48641-6.92023,9.154-12.8396,9.87341-5.92288.7198-12.89539-3.15578-15.32959-9.23207-1.79263-4.47482-1.55946-10.85362,3.94692-13.68636,3.687-1.89678,7.26976-3.49465,11.29-.82157,2.08051,1.38333,4.63664,1.54909,6.9084,2.60468,3.15493,1.46595,6.18341-1.9464,5.72648-6.20987-.08883-.82887-.32152-1.63891-.48785-2.45764C114.98622,242.5067,115.25228,242.34888,115.77507,242.42856Z" transform="translate(-63.8226 -148.89125)"/><path class="cls-1" d="M115.77507,242.42856l-.54.71233-1.43257-2.43569a.61054.61054,0,0,1,.4416-.40045A2.32794,2.32794,0,0,1,115.77507,242.42856Z" transform="translate(-63.8226 -148.89125)"/><path class="cls-1" d="M114.24405,240.30475q-.22083.20019-.44163.40041a1.58231,1.58231,0,0,1-1.18136-1.05585l.58919-.50383C113.846,239.21508,114.11593,239.68274,114.24405,240.30475Z" transform="translate(-63.8226 -148.89125)"/></g><g id="Слой_2" data-name="Слой 2"><path class="cls-1" d="M243.27262,255.2665q0,1.93114-7.52866,7.52866-7.52978,5.602-8.881,5.59864-2.31737,0-6.94988-6.94988-2.707-3.86061-5.40608-7.916L191.53251,268.3938q-16.99071-10.25353-17.9546-11.22414-5.021-5.03273-5.01874-17.61091V214.39789q0-8.12592-2.7036-9.48108a11.4898,11.4898,0,0,0-4.24628-.58214,1.8774,1.8774,0,0,1-2.1237-2.12706q0-.57934,9.36241-6.87151,9.36185-6.28881,9.94343-6.28937,3.27959,0,5.79119,6.7786a25.66483,25.66483,0,0,1,1.93114,9.67923q-1.54827,21.88238-1.54492,32.14207,0,5.424,5.46654,11.2331,5.466,5.81022,11.02823,5.80687.95886,0,6.32855-3.28127a44.2306,44.2306,0,0,0,6.71478-4.63363V201.78892a15.32411,15.32411,0,0,0-1.73747-5.696,27.79416,27.79416,0,0,1-1.73747-4.15q0-1.92779,2.31625-1.93114.38455,0,4.8273,1.35124a25.31023,25.31023,0,0,0,6.56365,1.35236,32.3479,32.3479,0,0,0,4.7299-1.35236,32.63011,32.63011,0,0,1,4.7299-1.35124q2.12258,0,2.1237,2.50993a33.88377,33.88377,0,0,1-2.21438,4.7299,37.098,37.098,0,0,0-2.6118,5.88859V244.0681a15.05328,15.05328,0,0,0,2.1237,6.951,5.98275,5.98275,0,0,0,5.405,3.28127,2.35323,2.35323,0,0,0,.86873-.19255,2.87527,2.87527,0,0,1,1.06241-.19367C242.50016,253.91414,243.27262,254.36753,243.27262,255.2665Z" transform="translate(-63.8226 -148.89125)"/><path class="cls-1" d="M281.49583,150.82239q-1.93114,1.93114-3.66749,3.86117-3.09151,3.4727-3.08871,13.31986v85.71816q0,3.66917,5.21241,11.77606a2.055,2.055,0,0,1-2.33193,2.31737,14.20038,14.20038,0,0,1-4.76349-1.54492,19.408,19.408,0,0,0-8.06938-1.5438,40.24956,40.24956,0,0,0-5.34451,1.5438,40.66707,40.66707,0,0,1-5.34563,1.54492q-2.14105,0-2.13937-2.31737a61.333,61.333,0,0,1,2.50993-6.17742q2.50713-5.79175,2.50993-8.10857V172.44337q0-3.66414-5.01985-9.45981,0-2.31569,3.18611-2.31625,3.18555,0,11.19728-5.88747,8.00837-5.88747,12.066-5.88859Q281.109,148.89125,281.49583,150.82239Z" transform="translate(-63.8226 -148.89125)"/><path class="cls-1" d="M327.24883,265.30509q0,2.51049-1.55611,2.50993a54.09671,54.09671,0,0,1-6.70919-.77246,55.73661,55.73661,0,0,0-8.2597-.77246q-.38791,0-3.888.77246-3.50125.7691-3.888.77246-3.30813,0-3.30589-1.15869,0,.7691,3.6048-7.52866a63.29864,63.29864,0,0,0,.99748-6.46849,76.36193,76.36193,0,0,0,.80268-8.78363v-32.048q0-5.21241-4.63363-6.94988a26.46746,26.46746,0,0,1-3.28015-.19255q-2.89672-.19144-2.89616-1.73859,0-.7691,8.8799-6.75621,8.87655-5.98151,9.65236-5.98487,9.26781,0,9.26725,20.65708v39.96293q0,7.14523,2.6062,11.101Q327.24883,265.88611,327.24883,265.30509Zm-1.15869-99.61792q0,3.864-4.63251,10.32854-4.63475,6.47017-8.49479,7.81861-1.35348-1.738-2.99243-7.04728a32.68366,32.68366,0,0,1-1.64119-9.55608q0-9.65068,7.91489-9.65236a11.436,11.436,0,0,1,6.951,2.1237A6.99163,6.99163,0,0,1,326.09015,165.68716Z" transform="translate(-63.8226 -148.89125)"/><path class="cls-1" d="M198.78727,384.15758q0,1.45734-5.68153,5.68153-5.68237,4.22756-6.70209,4.225-1.74881,0-5.24475-5.24475-2.04281-2.91342-4.07972-5.97384l-17.33774,11.21858q-12.82208-7.73786-13.54949-8.47033-3.78909-3.798-3.7874-13.29012V353.316q0-6.13225-2.04028-7.15492a8.67081,8.67081,0,0,0-3.20446-.43931,1.41679,1.41679,0,0,1-1.60265-1.60519q0-.4372,7.06537-5.18561,7.06495-4.74587,7.50384-4.74629,2.47495,0,4.37034,5.11549a19.368,19.368,0,0,1,1.45734,7.30446q-1.16841,16.5136-1.16587,24.2561,0,4.09323,4.12534,8.47709,4.12491,4.3847,8.32248,4.38217.7236,0,4.77586-2.47622a33.37875,33.37875,0,0,0,5.06733-3.49678V343.80059a11.56438,11.56438,0,0,0-1.31119-4.29853,20.975,20.975,0,0,1-1.31119-3.13181q0-1.45481,1.748-1.45734.2902,0,3.64294,1.01972a19.10043,19.10043,0,0,0,4.95328,1.02056,24.41143,24.41143,0,0,0,3.56943-1.02056,24.6244,24.6244,0,0,1,3.56943-1.01972q1.60181,0,1.60265,1.89412a25.57048,25.57048,0,0,1-1.67109,3.56943,27.99613,27.99613,0,0,0-1.971,4.44384v30.88638a11.36,11.36,0,0,0,1.60265,5.24559,4.5149,4.5149,0,0,0,4.07887,2.47622,1.77587,1.77587,0,0,0,.65559-.14531,2.16983,2.16983,0,0,1,.80175-.14616C198.20433,383.137,198.78727,383.47918,198.78727,384.15758Z" transform="translate(-63.8226 -148.89125)"/><path class="cls-1" d="M227.63252,305.33856q-1.45734,1.45734-2.76768,2.91384-2.333,2.62068-2.3309,10.05187v64.68744q0,2.769,3.93356,8.88684a1.55084,1.55084,0,0,1-1.75979,1.74881,10.71635,10.71635,0,0,1-3.59478-1.16587,14.64631,14.64631,0,0,0-6.08958-1.165,30.37444,30.37444,0,0,0-4.03325,1.165,30.68952,30.68952,0,0,1-4.03409,1.16587q-1.61575,0-1.61448-1.74881a46.28515,46.28515,0,0,1,1.89412-4.66181q1.892-4.37076,1.89412-6.11915v-59.4427q0-2.76515-3.78825-7.13887,0-1.74754,2.4044-1.748,2.404,0,8.45005-4.443,6.04354-4.443,9.10565-4.44384Q227.34063,303.88122,227.63252,305.33856Z" transform="translate(-63.8226 -148.89125)"/><path class="cls-1" d="M496.03745,302.74142v-15.69h-5.61v6.36a196.435,196.435,0,0,0-4.3-22.18c-.29-1.25-1.26-4.22-1.44-4.9a72.47222,72.47222,0,0,1-1.61-10.88q-.81-9.85492-1.08-12.54c-.99-.08-2.69,1.02-5.11,3.33q-3.63,3.45-4.44,5.63-17.475-6.915-20.7-6.91a6.01522,6.01522,0,0,0-4.24,2.11,19.34736,19.34736,0,0,1-2.22,2.11c-1.08,0-1.61-.55-1.61-1.66q0-2.43,6.38-7.87,6.39-5.445,8.54-5.44,3.63,0,22.73,6.91a1.43989,1.43989,0,0,0,.54-1.02q0-1.035-1.35-11.2-1.35-10.17-1.88-12.6c-.27-1.2-1.39-3.2-3.36-6.02-2.42-3.24-4.4-4.86-5.92-4.86q-1.485,0-8.74,8.19a77.93879,77.93879,0,0,0-16.67,28.15q-2.7,8.56494-5.11,27.50995a4.1098,4.1098,0,0,1-1.75,2.81,4.9233,4.9233,0,0,1-2.96,1.28q-3.09,0-3.09-2.43c0-1.19.71-2.77,2.15-4.73q2.145-2.93994,2.15-4.1c0-1.53-.9-3.2-2.69-4.99q-4.44-4.215-5.24-5.24a14.40924,14.40924,0,0,1-2.69-8.7q0-9.09,5.65-14.97,5.235-5.505,15.73-12.8,10.34995-6.915,20.56995-13.82,1.89-1.275,8-4.99,6.12-3.705,6.66-3.71c.89,0,1.34.34,1.34,1.03q0,.255-.87,1.08c-.59.56-.87.96-.87,1.22a47.25094,47.25094,0,0,1,4.3,3.84c3.04,2.9,4.93005,5.54,5.64,7.93a123.32315,123.32315,0,0,1,4.31,23.29q1.875,18.3,3.5,27.89.25507,1.155,4.43,2.56C497.87742,271.21139,496.43742,291.99142,496.03745,302.74142Z" transform="translate(-63.8226 -148.89125)"/><path class="cls-1" d="M292.03653,345.63649q0,6.71542-7.59024,19.9977-.14728.29457-14.0132,22.48038-7.59278,11.96688-7.59109,15.911a5.48281,5.48281,0,0,0,1.46015,3.50351,3.918,3.918,0,0,0,2.773,1.75133,3.2214,3.2214,0,0,0,.80329-.14559,3.43029,3.43029,0,0,1,.94889-.14644c1.26292,0,1.89777.58406,1.89777,1.75133q0,.87609-10.94816,7.29906-2.19022,0-3.6491-3.065a14.19751,14.19751,0,0,1-1.16812-5.83891,16.45921,16.45921,0,0,1,2.04336-7.59109q2.04294-3.35961,4.08757-6.715-9.34369-4.52265-12.5539-8.31989-3.65037-4.23189-3.6491-11.82425V354.10282q0-9.92521-5.83891-9.92648a4.02755,4.02755,0,0,0-1.09532.292,3.96428,3.96428,0,0,1-1.09448.292,1.16094,1.16094,0,0,1-1.31371-1.31371q0-.58152,5.69331-4.96282,3.065-2.3337,6.27653-4.67163,2.3337.87609,5.9845,5.40128,3.9424,5.11052,3.942,8.46633v15.911q0,8.4676.58321,10.94816,1.75218,8.61488,8.9048,8.61192,1.75091,0,8.1015-11.60417,6.34975-11.605,6.34932-16.13021,0-10.07249-6.86059-10.07207a2.44532,2.44532,0,0,0-.72965.14559,2.73323,2.73323,0,0,1-.87609.14644q-2.189,0-2.189-1.75218,7.29694-5.25527,14.1588-9.488,3.35707,0,5.40128,4.08757A15.82714,15.82714,0,0,1,292.03653,345.63649Z" transform="translate(-63.8226 -148.89125)"/></g><g id="Слой_6" data-name="Слой 6"><g id="Слой_3" data-name="Слой 3"><path class="cls-1" d="M467.35739,318.79138h-22.34a8.38831,8.38831,0,0,0-8.39,8.39v43.59a8.39472,8.39472,0,0,0,8.39,8.39h22.34a8.39686,8.39686,0,0,0,8.4-8.39v-43.59A8.39045,8.39045,0,0,0,467.35739,318.79138Zm2.9,47.951c0,3.77411-2.703,6.839-6.03864,6.839H448.15891c-3.32843,0-6.03149-3.06488-6.03149-6.839V331.21044c0-3.78223,2.70306-6.83905,6.03149-6.83905h16.05988c3.33563,0,6.03864,3.05682,6.03864,6.83905Z" transform="translate(-63.8226 -148.89125)"/><path class="cls-1" d="M496.03745,287.05141v101.4a5.59939,5.59939,0,0,1-5.61,5.61v-84.57h-67.72a5.59929,5.59929,0,0,1-5.61-5.61h74.78c-.36-2.84-.86-6.51-1.45-10.47v-6.36Z" transform="translate(-63.8226 -148.89125)"/><path class="cls-1" d="M491.87742,303.88143h-1.45v-10.47C491.01743,297.37142,491.51743,301.0414,491.87742,303.88143Z" transform="translate(-63.8226 -148.89125)"/><path class="cls-1" d="M361.26743,292.28139h-52.41a1.31873,1.31873,0,0,0-1.31995,1.32v10.28h-5.26v-11.16a5.67183,5.67183,0,0,1,5.67-5.67h53.02c-.03.41-.09.82-.09,1.23A19.95352,19.95352,0,0,0,361.26743,292.28139Z" transform="translate(-63.8226 -148.89125)"/><path class="cls-1" d="M386.90745,290.40139q0,1.155-14.48,9.65-2.91,0-4.83-4.05a18.8081,18.8081,0,0,1-1.55-7.72,21.68838,21.68838,0,0,1,2.71-10.04q2.7-4.44,5.4-8.88-12.36008-5.985-16.6-11.01-4.83-5.595-4.83-15.63v-27.23q0-13.125-7.72-13.12a5.52492,5.52492,0,0,0-1.45.38,5.32655,5.32655,0,0,1-1.44.39,1.53794,1.53794,0,0,1-1.74-1.74q0-.765,7.53-6.56,4.04993-3.09,8.3-6.18,3.09,1.155,7.91,7.14,5.22006,6.765,5.22,11.2v21.04q0,11.205.77,14.48,2.31006,11.40005,11.78,11.39,2.31,0,10.71-15.34,8.4-15.36008,8.4-21.34,0-13.32-9.08-13.32a3.49018,3.49018,0,0,0-.96.19,3.62865,3.62865,0,0,1-1.16.2c-1.93,0-2.89-.78-2.89-2.32q9.645-6.945,18.72-12.55,4.44,0,7.14,5.41a20.86552,20.86552,0,0,1,2.32,9.46q0,8.88-10.04,26.45-.195.39-18.53,29.73-10.05,15.825-10.04,21.04a7.23064,7.23064,0,0,0,1.93005,4.63c1.29,1.55,2.50995,2.32,3.67,2.32a4.576,4.576,0,0,0,1.06-.19,4.57194,4.57194,0,0,1,1.26-.2C386.06742,288.08138,386.90745,288.86141,386.90745,290.40139Z" transform="translate(-63.8226 -148.89125)"/><path class="cls-1" d="M422.25742,292.7914v11.09h-5.16v-10.29a1.3081,1.3081,0,0,0-1.31-1.31h-25.73a3.278,3.278,0,0,0,1.37-2.65,3.82267,3.82267,0,0,0-2.85-2.58h27.94A5.74015,5.74015,0,0,1,422.25742,292.7914Z" transform="translate(-63.8226 -148.89125)"/><path class="cls-1" d="M307.53745,303.88143a5.60787,5.60787,0,0,1-5.61,5.61h-71.54a6.06452,6.06452,0,0,1,.82-1.24c.86-.97,1.76-1.94,2.72-2.91-.19-.97-.96-1.46-2.29-1.46Z" transform="translate(-63.8226 -148.89125)"/><g id="Слой_5" data-name="Слой 5"><path class="cls-1" d="M362.67741,303.2914a49.82295,49.82295,0,1,0,49.83,49.83A49.82832,49.82832,0,0,0,362.67741,303.2914Zm23.34,85.16a42.30063,42.30063,0,0,1-46.67,0,42.355,42.355,0,1,1,46.67,0Z" transform="translate(-63.8226 -148.89125)"/></g><path class="cls-1" d="M469.0474,298.5414v5.34h-25.71v-5.48a4.144,4.144,0,0,1,4.14-4.15h17.28A4.28907,4.28907,0,0,1,469.0474,298.5414Z" transform="translate(-63.8226 -148.89125)"/></g><path class="cls-1" d="M490.42741,388.45138v5.61h-99.36a49.65379,49.65379,0,0,0,6.74-5.61Z" transform="translate(-63.8226 -148.89125)"/><path class="cls-1" d="M334.28745,394.06142h-38.19l-24.15.63c1.06-1.94,2.34-4.13,3.87-6.58.85-1.38.99-1.6,1.76-2.86,8.29,1.39,17.06,2.79,36.8,3.2h13.17A49.65058,49.65058,0,0,0,334.28745,394.06142Z" transform="translate(-63.8226 -148.89125)"/></g></svg>