<svg fill="#444" id="Слой_1" data-name="Слой 1" xmlns="http://www.w3.org/2000/svg" viewBox="0 0 822.39626 808.96173"><title>photo_icon</title><path d="M824.29082,315.74417a475.40573,475.40573,0,0,0-31.90975-44.2518c-25.84247-31.52606-51.2989-63.50027-79.08852-93.26006-25.70637-27.52855-53.53608-53.21277-81.75852-78.21-23.17223-20.52414-48.25128-38.90154-72.58683-58.10151-5.01457-3.9563-10.15139-7.98944-15.80615-10.85307-5.642-2.85715-28.397-13.88962-52.80767-9.21314-23.06895,4.41944-47.80385,24.26326-54.70014,31.57171-18.02452,19.1016-38.04062,36.324-57.19679,54.35778-16.219,15.26878-32.32969,30.65474-48.69188,45.76837-10.92125,10.08779-21.184,12.13554-32.03533,3.86759-41.09665-31.31262-75.59782-18.15357-107.26444,11.39118-35.95464,33.54547-72.52212,66.813-101.20731,107.4634-15.56995,22.06459-16.468,55.19408-.44754,76.95466,14.31222,19.44038,14.298,24.85757-2.42352,42.61855-18.74154,19.90635-37.76185,39.57253-57.30963,58.67958-2.19331,2.14384-11.81627,18.52117-10.80989,36.11945.927,16.20956,12.29253,33.6472,14.82063,37.62649,10.62615,16.726,21.822,33.24146,34.32015,48.592,19.769,24.28061,40.01747,48.27293,61.50312,71.02769,25.63782,27.15216,52.02619,53.7046,79.49684,78.98781,30.442,28.01779,62.4483,54.338,93.85211,81.306a54.89817,54.89817,0,0,0,10.75606,7.46346c4.8628,2.45824,27.72839,15.94588,51.14374,13.79391,27.63076-2.53939,56.39142-21.4542,62.51215-27.80076,19.171-19.87863,40.32494-37.83151,60.322-56.93237,1.27666-1.21949,2.58474-2.36215,3.92079-3.44084A220.63264,220.63264,0,0,0,679.3092,558.57071a161.20867,161.20867,0,0,1,26.77936-35.03594c32.47384-32.84812,63.26233-67.36513,94.6607-101.272,9.372-10.121,17.91861-21.06373,27.84159-30.59015.89-.85448,12.7107-18.71338,11.943-35.075C839.61315,336.97434,825.86092,318.18521,824.29082,315.74417ZM634.43429,522.691a172.70543,172.70543,0,1,1-172.70543-172.7053A172.70546,172.70546,0,0,1,634.43429,522.691Zm135.4646-137.92722c-21.28508,22.13277-42.04876,44.76676-63.05867,67.16444a66.216,66.216,0,0,1-5.7796,5.67666c-11.42285,9.5148-22.78037,9.09225-28.83985-.78235-28.0111-89.60492-111.65578-154.63351-210.4919-154.63351-121.77995,0-220.502,98.72217-220.502,220.502,0,101.07467,68.00865,186.25917,160.7603,212.306,5.50405,3.79372,6.181,7.8886-1.6528,15.2157-8.36236,7.82154-17.498,14.85-26.56209,21.87961-11.46752,8.89366-24.09266,7.53027-35.10522.3921A430.98984,430.98984,0,0,1,294.918,739.87024c-23.93342-20.24475-48.19956-40.30688-70.26143-62.49842-26.14041-26.294-50.46124-54.44154-74.85012-82.41429-13.05239-14.97047-24.87192-31.05266-36.72313-47.02251-9.6285-12.97469-18.80626-26.31636-27.55825-39.89832-6.40964-9.947-6.66663-20.888.53279-30.45417a366.57447,366.57447,0,0,1,27.40779-32.48386c13.01329-13.653,26.86944-10.45676,33.58506,6.99118,1.33394,3.46583,2.49132,7.01023,4.01161,10.3918,5.92251,13.17414,15.749,18.58453,28.105,15.62451,10.96208-2.62607,16.00585-10.53632,15.86393-24.88009.85139-.38827-5.838-21.32134-11.06527-30.833-11.9982-21.83185-24.57608-43.34732-37.07416-64.901a177.566,177.566,0,0,0-12.00389-18.674c-13.31346-17.47813-13.43967-37.21.95347-53.72873,17.27335-19.82444,34.58221-39.66805,52.87486-58.53469,10.2604-10.58222,22.12472-19.76715,34.01107-28.57668,16.049-11.89476,32.90912-11.83587,50.18854-1.55122,31.55489,18.78139,63.01821,37.77274,95.28393,55.26732,8.87894,4.81413,20.61149,6.90048,30.77823,6.24731,18.05793-1.16035,24.93985-19.18079,13.59718-33.43733-3.63745-4.57174-9.16167-7.82154-14.23947-11.01293-4.2561-2.67507-9.17812-4.26711-13.7026-6.54277-16.5661-8.332-19.1068-26.501-5.42425-38.83671,31.07456-28.01581,62.24972-55.92013,93.25734-84.00968,21.55346-19.525,43.993-19.17794,67.24-1.73174,60.05992,45.073,110.32864,100.45242,162.42869,153.761,25.59476,26.18842,46.93738,56.53582,70.13633,85.05632a57.867,57.867,0,0,1,4.89294,7.68494C791.00556,352.81634,789.147,364.74921,769.89889,384.76383Z" transform="translate(-18.17341 -20.71413)"/><circle cx="443.55542" cy="501.97696" r="125.30129"/><rect x="447.23682" y="126.7925" width="100.4934" height="73.41306" rx="8" ry="8" transform="translate(11.92486 378.94759) rotate(-45)"/></svg>